<svg width="512" height="512" viewBox="0 0 512 512" fill="none" xmlns="http://www.w3.org/2000/svg">
  <rect width="512" height="512" fill="white"/>
  <path d="M252.069 89.75C287.119 89.75 317.748 96.6968 343.957 110.59C370.165 124.484 390.374 144.061 404.583 169.323C419.109 194.268 426.371 223.161 426.371 256C426.371 288.524 419.109 317.416 404.583 342.677C390.374 367.939 370.007 387.516 343.483 401.41C317.274 415.303 286.803 422.25 252.069 422.25H127.5V89.75H252.069Z" fill="white" fill-opacity="0.9"/>
  <path d="M252.069 89.75C287.119 89.75 317.748 96.6968 343.957 110.59C370.165 124.484 390.374 144.061 404.583 169.323C419.109 194.268 426.371 223.161 426.371 256C426.371 288.524 419.109 317.416 404.583 342.677C390.374 367.939 370.007 387.516 343.483 401.41C317.274 415.303 286.803 422.25 252.069 422.25H127.5V89.75H252.069Z" fill="url(#paint0_angular_1507_4614)"/>
  <defs>
  <radialGradient id="paint0_angular_1507_4614" cx="0" cy="0" r="1" gradientUnits="userSpaceOnUse" gradientTransform="translate(266.042 256) rotate(90) scale(166.25 159.062)">
  <stop stop-color="#001FC2"/>
  <stop offset="0.711334" stop-color="#0667F8" stop-opacity="0.2"/>
  <stop offset="1" stop-color="#155EEF" stop-opacity="0"/>
  </radialGradient>
  </defs>
  </svg>
  